<?xml version="1.0" encoding="UTF-8" standalone="no"?>
<svg
   xmlns:dc="http://purl.org/dc/elements/1.1/"
   xmlns:cc="http://creativecommons.org/ns#"
   xmlns:rdf="http://www.w3.org/1999/02/22-rdf-syntax-ns#"
   xmlns:svg="http://www.w3.org/2000/svg"
   xmlns="http://www.w3.org/2000/svg"
   xmlns:sodipodi="http://sodipodi.sourceforge.net/DTD/sodipodi-0.dtd"
   xmlns:inkscape="http://www.inkscape.org/namespaces/inkscape"
   width="210mm"
   height="297mm"
   viewBox="0 0 210 297"
   version="1.1"
   id="svg8"
   inkscape:version="1.0.1 (3bc2e813f5, 2020-09-07)"
   sodipodi:docname="data.svg">
  <defs
     id="defs2" />
  <sodipodi:namedview
     id="base"
     pagecolor="#ffffff"
     bordercolor="#666666"
     borderopacity="1.0"
     inkscape:pageopacity="0.0"
     inkscape:pageshadow="2"
     inkscape:zoom="0.9899495"
     inkscape:cx="484.37733"
     inkscape:cy="451.29783"
     inkscape:document-units="mm"
     inkscape:current-layer="layer1"
     inkscape:document-rotation="0"
     showgrid="false"
     inkscape:window-width="1390"
     inkscape:window-height="971"
     inkscape:window-x="1926"
     inkscape:window-y="23"
     inkscape:window-maximized="0"
     inkscape:snap-global="true" />
  <metadata
     id="metadata5">
    <rdf:RDF>
      <cc:Work
         rdf:about="">
        <dc:format>image/svg+xml</dc:format>
        <dc:type
           rdf:resource="http://purl.org/dc/dcmitype/StillImage" />
        <dc:title />
      </cc:Work>
    </rdf:RDF>
  </metadata>
  <g
     inkscape:label="Lager 1"
     inkscape:groupmode="layer"
     id="layer1">
    <path
       style="fill:none;stroke:#000000;stroke-width:0.264583px;stroke-linecap:butt;stroke-linejoin:miter;stroke-opacity:1"
       d="M 40.892237,42.228584 42.228584,110.64958 74.300928,107.97689 74.568197,91.940715 53.721174,82.051744 73.499119,68.955535 75.370006,52.117558 64.411954,44.634009 Z"
       id="path17" />
    <path
       style="fill:none;stroke:#000000;stroke-width:0.264583px;stroke-linecap:butt;stroke-linejoin:miter;stroke-opacity:1"
       d="M 49.444862,51.850287 49.177593,65.213764 63.610145,61.471989 Z"
       id="path19" />
    <path
       style="fill:none;stroke:#000000;stroke-width:0.264583px;stroke-linecap:butt;stroke-linejoin:miter;stroke-opacity:1"
       d="m 49.979399,94.346142 v 1.069079 l 1.069079,8.285349 10.423511,-4.810846 z"
       id="path21" />
    <path
       style="fill:none;stroke:#000000;stroke-width:0.264583px;stroke-linecap:butt;stroke-linejoin:miter;stroke-opacity:1"
       d="m 84.1899,110.91685 22.98518,-67.084647 20.57975,0.801806 23.51972,59.333831 -17.10525,-0.53454 -10.15624,-24.321522 -15.50163,2.672697 -14.967097,31.270535 z"
       id="path23"
       sodipodi:nodetypes="ccccccccc" />
    <path
       style="fill:none;stroke:#000000;stroke-width:0.264583px;stroke-linecap:butt;stroke-linejoin:miter;stroke-opacity:1"
       d="m 112.2532,58.532026 -0.80181,6.414469 -3.20723,9.888971 15.23436,-2.939965 z"
       id="path25" />
    <path
       style="fill:none;stroke:#000000;stroke-width:0.264583px;stroke-linecap:butt;stroke-linejoin:miter;stroke-opacity:1"
       d="m 172.12157,49.444862 0.53454,39.288619 -9.08716,2.939965 -5.07812,-11.759859 -5.34539,6.1472 8.81989,17.105253 17.63979,1.06907 9.35443,-13.096202 -2.13815,-48.108515 z"
       id="path27" />
    <path
       style="fill:none;stroke:#000000;stroke-width:0.264583px;stroke-linecap:butt;stroke-linejoin:miter;stroke-opacity:1"
       d="m 248.29339,47.573975 v 8.819895 h -13.63075 l -10.69078,11.759859 9.08716,11.49259 15.23437,11.225318 8.55262,5.34539 2.6727,11.759863 -12.82894,10.42351 -16.30344,1.33635 -6.1472,-5.87993 1.33635,-9.88898 12.56166,5.87993 10.69078,-4.27631 -23.78698,-22.18337 -8.8199,-18.976136 11.49259,-12.828936 z"
       id="path31" />
  </g>
</svg>
