<?xml version="1.0" encoding="UTF-8" standalone="no"?>
<svg
   xmlns:dc="http://purl.org/dc/elements/1.1/"
   xmlns:cc="http://creativecommons.org/ns#"
   xmlns:rdf="http://www.w3.org/1999/02/22-rdf-syntax-ns#"
   xmlns:svg="http://www.w3.org/2000/svg"
   xmlns="http://www.w3.org/2000/svg"
   xmlns:sodipodi="http://sodipodi.sourceforge.net/DTD/sodipodi-0.dtd"
   xmlns:inkscape="http://www.inkscape.org/namespaces/inkscape"
   width="210mm"
   height="297mm"
   viewBox="0 0 210 297"
   version="1.1"
   id="svg8"
   inkscape:version="1.0.1 (3bc2e813f5, 2020-09-07)"
   sodipodi:docname="data.svg">
  <defs
     id="defs2" />
  <sodipodi:namedview
     id="base"
     pagecolor="#ffffff"
     bordercolor="#666666"
     borderopacity="1.0"
     inkscape:pageopacity="0.0"
     inkscape:pageshadow="2"
     inkscape:zoom="1.4"
     inkscape:cx="424.19678"
     inkscape:cy="682.54853"
     inkscape:document-units="mm"
     inkscape:current-layer="layer1"
     inkscape:document-rotation="0"
     showgrid="false"
     inkscape:window-width="1920"
     inkscape:window-height="1017"
     inkscape:window-x="-8"
     inkscape:window-y="-8"
     inkscape:window-maximized="1"
     inkscape:snap-global="true" />
  <metadata
     id="metadata5">
    <rdf:RDF>
      <cc:Work
         rdf:about="">
        <dc:format>image/svg+xml</dc:format>
        <dc:type
           rdf:resource="http://purl.org/dc/dcmitype/StillImage" />
        <dc:title />
      </cc:Work>
    </rdf:RDF>
  </metadata>
  <g
     inkscape:label="Lager 1"
     inkscape:groupmode="layer"
     id="layer1">
    <path
       style="fill:none;stroke:#000000;stroke-width:0.264583px;stroke-linecap:butt;stroke-linejoin:miter;stroke-opacity:1"
       d="m 38.364583,171.97916 -0.566965,-16.63095 27.781249,-0.37797 0.18899,-16.06399 -28.159226,-0.94494 v -16.25298 l 88.635419,2.45685 -34.395836,18.14285 -0.566965,11.52828 46.113091,18.52083 -53.672615,-7.74851 0.566965,-22.67857 -12.095239,-0.94494 -0.377976,32.31696 z"
       id="path9" />
    <path
       style="fill:none;stroke:#000000;stroke-width:0.264583px;stroke-linecap:butt;stroke-linejoin:miter;stroke-opacity:1"
       d="m 147.41071,157.04911 -0.18899,10.20535 41.01042,0.75595 -1.5119,-9.4494 z"
       id="path11" />
    <path
       style="fill:none;stroke:#000000;stroke-width:0.264583px;stroke-linecap:butt;stroke-linejoin:miter;stroke-opacity:1"
       d="m 149.11161,149.11161 0.56696,-17.5759 46.11309,4.15774 -3.0238,15.68601 -42.71131,-1.70089 z"
       id="path13" />
    <path
       style="fill:none;stroke:#000000;stroke-width:0.264583px;stroke-linecap:butt;stroke-linejoin:miter;stroke-opacity:1"
       d="m 10.772321,192.76786 -0.9449402,56.88541 27.4032742,-0.37797 5.858629,-6.99256 3.212799,-12.28423 -8.126489,-1.88988 -10.961309,-5.29167 7.9375,-6.80357 16.630954,-5.29167 -0.18899,-16.06398 -15.68601,-3.77977 z"
       id="path15" />
    <path
       style="fill:none;stroke:#000000;stroke-width:0.264583px;stroke-linecap:butt;stroke-linejoin:miter;stroke-opacity:1"
       d="m 20.977678,200.32738 -3.023809,8.31547 11.150297,2.26786 4.724702,-10.96131 z"
       id="path17" />
    <path
       style="fill:none;stroke:#000000;stroke-width:0.264583px;stroke-linecap:butt;stroke-linejoin:miter;stroke-opacity:1"
       d="m 20.410714,233.77827 -0.755952,7.74851 10.772321,1.70089 1.889882,-10.01636 z"
       id="path19" />
    <path
       style="fill:none;stroke:#000000;stroke-width:0.264583px;stroke-linecap:butt;stroke-linejoin:miter;stroke-opacity:1"
       d="M 58.586308,244.55059 82.209822,195.2247 93.360117,194.84672 116.79464,243.03869 103.56547,241.52678 92.415176,222.25 81.831843,223.38392 68.224701,245.30655 Z"
       id="path21" />
    <path
       style="fill:none;stroke:#000000;stroke-width:0.264583px;stroke-linecap:butt;stroke-linejoin:miter;stroke-opacity:1"
       d="m 85.044641,205.99702 -4.346725,10.77232 12.473215,-1.88988 -8.504465,-9.82738 z"
       id="path23" />
    <path
       style="fill:none;stroke:#000000;stroke-width:0.264583px;stroke-linecap:butt;stroke-linejoin:miter;stroke-opacity:1"
       d="m 149.86756,193.33482 v 0.75595 l -0.37798,34.20685 -7.18155,12.09523 -16.44196,1.13393 -8.88244,-7.55952 -1.51191,-8.88244 13.79614,-0.18899 1.32291,8.88244 9.07143,0.75595 2.07887,-10.96131 3.02381,-30.61607 z"
       id="path25" />
    <path
       style="fill:none;stroke:#000000;stroke-width:0.264583px;stroke-linecap:butt;stroke-linejoin:miter;stroke-opacity:1"
       d="m 193.7128,197.30357 -13.04018,-0.18899 -7.74851,10.96131 5.48065,14.17411 15.68601,11.90625 -1.13393,11.1503 -24.56845,6.61458 -13.22917,-11.90625 3.77977,-6.99256 13.22916,8.69345 11.33929,-1.88988 -14.17411,-14.55208 -6.99256,-24.00149 12.6622,-9.26042 19.65477,-1.5119 z"
       id="path27" />
  </g>
</svg>
